<svg width="48" height="48" viewBox="0 0 48 48" fill="none" xmlns="http://www.w3.org/2000/svg">
<path d="M17.3333 27.3335C22.8562 27.3335 27.3333 22.8563 27.3333 17.3335C27.3333 11.8106 22.8562 7.3335 17.3333 7.3335C11.8105 7.3335 7.33331 11.8106 7.33331 17.3335C7.33331 22.8563 11.8105 27.3335 17.3333 27.3335Z" stroke="#C9A84C" stroke-width="3.33333" stroke-linecap="round" stroke-linejoin="round"/>
<path d="M34.15 21.2832C35.7255 21.8706 37.1275 22.8458 38.2263 24.1185C39.325 25.3913 40.0851 26.9206 40.4362 28.565C40.7874 30.2094 40.7182 31.9157 40.2351 33.5263C39.752 35.1368 38.8706 36.5996 37.6724 37.7792C36.4742 38.9589 34.9979 39.8173 33.38 40.2752C31.7621 40.7332 30.0548 40.7757 28.4161 40.399C26.7774 40.0222 25.2602 39.2384 24.0047 38.1199C22.7492 37.0014 21.7961 35.5844 21.2333 33.9999" stroke="#C9A84C" stroke-width="3.33333" stroke-linecap="round" stroke-linejoin="round"/>
<path d="M15.6667 14H17.3334V20.6667" stroke="#C9A84C" stroke-width="3.33333" stroke-linecap="round" stroke-linejoin="round"/>
<path d="M31.85 27.1333L33.0166 28.3166L28.3167 33.0166" stroke="#C9A84C" stroke-width="3.33333" stroke-linecap="round" stroke-linejoin="round"/>
</svg>
