<svg width="48" height="48" viewBox="0 0 48 48" fill="none" xmlns="http://www.w3.org/2000/svg">
<path d="M14 40.6668V10.6668C14 9.78277 14.3512 8.93493 14.9763 8.30981C15.6014 7.68469 16.4493 7.3335 17.3333 7.3335H30.6667C31.5507 7.3335 32.3986 7.68469 33.0237 8.30981C33.6488 8.93493 34 9.78277 34 10.6668V40.6668H14Z" stroke="#C9A84C" stroke-width="3.33333" stroke-linecap="round" stroke-linejoin="round"/>
<path d="M14 24H10.6667C9.78261 24 8.93477 24.3512 8.30965 24.9763C7.68453 25.6014 7.33334 26.4493 7.33334 27.3333V37.3333C7.33334 38.2174 7.68453 39.0652 8.30965 39.6904C8.93477 40.3155 9.78261 40.6667 10.6667 40.6667H14" stroke="#C9A84C" stroke-width="3.33333" stroke-linecap="round" stroke-linejoin="round"/>
<path d="M34 19H37.3333C38.2174 19 39.0652 19.3512 39.6904 19.9763C40.3155 20.6014 40.6667 21.4493 40.6667 22.3333V37.3333C40.6667 38.2174 40.3155 39.0652 39.6904 39.6904C39.0652 40.3155 38.2174 40.6667 37.3333 40.6667H34" stroke="#C9A84C" stroke-width="3.33333" stroke-linecap="round" stroke-linejoin="round"/>
<path d="M20.6667 14H27.3333" stroke="#C9A84C" stroke-width="3.33333" stroke-linecap="round" stroke-linejoin="round"/>
<path d="M20.6667 20.6665H27.3333" stroke="#C9A84C" stroke-width="3.33333" stroke-linecap="round" stroke-linejoin="round"/>
<path d="M20.6667 27.3335H27.3333" stroke="#C9A84C" stroke-width="3.33333" stroke-linecap="round" stroke-linejoin="round"/>
<path d="M20.6667 34H27.3333" stroke="#C9A84C" stroke-width="3.33333" stroke-linecap="round" stroke-linejoin="round"/>
</svg>
