<svg width="48" height="48" viewBox="0 0 48 48" fill="none" xmlns="http://www.w3.org/2000/svg">
<path d="M4.66667 41V13.3333C4.66667 12.4493 5.01786 11.6014 5.64298 10.9763C6.2681 10.3512 7.11595 10 8 10H18C18.8841 10 19.7319 10.3512 20.357 10.9763C20.9821 11.6014 21.3333 12.4493 21.3333 13.3333V41" stroke="#C9A84C" stroke-width="3.33333" stroke-linecap="round" stroke-linejoin="round"/>
<path d="M9.33333 18.6667H16.6667" stroke="#C9A84C" stroke-width="3.33333" stroke-linecap="round" stroke-linejoin="round"/>
<path d="M9.33333 26H16.6667" stroke="#C9A84C" stroke-width="3.33333" stroke-linecap="round" stroke-linejoin="round"/>
<path d="M9.33333 33.3333H16.6667" stroke="#C9A84C" stroke-width="3.33333" stroke-linecap="round" stroke-linejoin="round"/>
<path d="M2.66667 41H45.3333" stroke="#C9A84C" stroke-width="3.33333" stroke-linecap="round" stroke-linejoin="round"/>
<circle cx="34.6667" cy="17" r="4" stroke="#C9A84C" stroke-width="3.33333" stroke-linecap="round" stroke-linejoin="round"/>
<path d="M27.3333 41V32C27.3333 28.4 30.5 25.3333 34.6667 25.3333C38.8333 25.3333 42 28.4 42 32V41" stroke="#C9A84C" stroke-width="3.33333" stroke-linecap="round" stroke-linejoin="round"/>
</svg>
