<?xml version="1.0" encoding="UTF-8"?>
<svg id="Layer_2" data-name="Layer 2" xmlns="http://www.w3.org/2000/svg" viewBox="0 0 511.08 353.44">
  <defs>
    <style>
      .cls-1 {
        fill: #C9A84C;
      }
    </style>
  </defs>
  <g id="_Слой_1" data-name="Слой 1">
    <g>
      <path class="cls-1" d="M0,234.34v-52.62c6.15-17.47,23.81-25.66,41.97-32.16l-.06-19.29C23.71,123.97,5.74,115.25,0,97.52v-52.53c5.25-14.36,19.62-23.53,34.66-29.26C82.14-2.36,147.24-3.44,197.24,5.39c25.9,4.58,72.14,17.54,72.18,45.53l.05,35.73c12.87,4.19,24.06,9.81,33.95,18.78,41.36-26.24,92.45-28.91,136.84-5.24,47.58,25.37,74.81,77.42,70.35,129.9-4.06,47.81-33.63,89.21-74.2,109.18-46.42,22.85-99.17,17.49-139.8-11.9-18.56,12.37-42.95,18.76-65.04,22.04-48.05,7.15-109.62,5.73-154.95-11.72-14.92-5.74-34.38-17.78-34.47-33.18l-.22-37.62C23.74,260.37,6.01,252.03,0,234.34ZM230.95,68.39c6.8-2.77,13.21-6.59,18.26-11.55,9.08-8.91-6.4-19.34-19.24-24.33-45.35-17.63-107.51-18.45-155.3-9.91-18.43,3.29-42.17,9.84-54.74,22.25-3.25,3.21-3.34,8.11-.17,11.44,11.84,12.41,37.22,19.35,55.42,22.56,47.45,8.36,111.16,7.7,155.77-10.46ZM41.97,111.82v-23.5c-8.96-3.15-15.9-6.34-24.6-11.11l-.03,15.61c-.01,7.14,14.9,15.57,24.63,19ZM252.17,91.14l-.23-13.85c-8.56,4.62-15.48,7.82-24.49,11.05l-.03,23.39c9.99-3.71,24.91-10.93,24.75-20.59ZM84,122.52l.02-24.51-24.69-4.51.1,24.18,24.57,4.83ZM210.08,117.65l-.02-24.19-24.64,4.57v24.56s24.67-4.94,24.67-4.94ZM126.07,125.99l-.09-24.75-24.64-1.13.09,24.57,24.64,1.31ZM168.14,124.51l-.14-24.49-24.57,1.26-.06,24.79,24.77-1.57ZM493.65,218.76c0-64.8-52.53-117.32-117.32-117.32s-117.32,52.53-117.32,117.32,52.53,117.32,117.32,117.32,117.32-52.53,117.32-117.32ZM116.85,152.27c46.29,8.5,101.8,7.17,146.37-6.61,7.35-11.48,15.79-20.49,26.01-29.83-7.25-5.32-14.69-8.85-22.57-11.84-11.88,20.11-43.97,29.13-67.27,33.55-41.57,7.9-83.2,7.2-124.85,1.27,13.73,7.32,27.13,10.66,42.31,13.45ZM83.94,185.14l.07-23.21c-8.96-3.3-16.02-6.51-24.58-11.14l-.02,16.16c0,6.24,15.08,15.33,24.52,18.18ZM126.03,196.08l-.02-24.52-24.68-4.5.17,24.2,24.52,4.83ZM227.46,196.03l16.6-3.23c2.07-9.41,4.62-17.44,7.67-25.8l-24.31,4.62.05,24.41ZM180.5,217.14c-32.14-.6-61.85-2.72-91.43-11.68-12.8-3.89-24.6-8.79-34.9-16.86-6.28-5.52-10.98-11.29-12.25-20.47-13.89,5.7-30.78,14.44-21.7,25.48,12.97,11.83,36.03,18.47,54.16,21.67,35.29,6.24,71.48,7.26,106.13,1.85ZM168.09,199.42l-.06-24.57-24.66-1.3.04,24.62,24.68,1.26ZM210.11,198.07l-.07-24.52-24.65,1.31.04,24.71,24.68-1.5ZM41.98,248.44l-.02-23.51c-8.86-3.18-16.19-6.64-24.72-11.25l.13,15.85c.06,7.41,15.54,15.39,24.6,18.9ZM243.22,240.54l-1.87-21.1-13.97,5.54.24,23.44,15.6-7.88ZM84,259.08v-24.51s-24.67-4.52-24.67-4.52l.11,24.23,24.56,4.79ZM210.14,253.95l-.12-23.84-24.61,4.5v24.42s24.73-5.09,24.73-5.09ZM126.06,262.56l-.06-24.7-24.7-1.29.2,24.65,24.56,1.34ZM168.1,261.03l-.06-24.45-24.63,1.29v24.75s24.69-1.58,24.69-1.58ZM224.24,291c11.95-1.9,22.49-4.04,33.9-7.16-4.35-8.78-7.57-16.35-10.79-25.58-13.8,7.44-28.38,11.7-43.94,15.11-42.31,8.39-84.49,8.4-128.29,1.99,12.64,7.76,26.98,10.21,41.45,13.58,35.64,6.22,71.18,6.66,107.67,2.06ZM84.04,321.94l-.15-23.62c-9.33-3.21-15.92-6.39-24.47-10.97l.1,16.35c.04,6.14,14.95,14.96,24.52,18.25ZM282.66,315.72l-13.21-14.58.04,20.98,13.17-6.39ZM126.07,332.7l-.14-24.65-24.54-4.46v24.08s24.68,5.03,24.68,5.03ZM252.16,327.65l-.16-24.1-24.6,4.58.02,24.6,24.73-5.08ZM168.08,336.03l-.04-24.61-24.65-1.32v24.62s24.7,1.31,24.7,1.31ZM210.11,334.68l-.08-24.59-24.64,1.34.02,24.68,24.7-1.43Z"/>
      <path class="cls-1" d="M468.99,218.76c0,51.2-41.51,92.7-92.7,92.7s-92.7-41.51-92.7-92.7,41.51-92.7,92.7-92.7,92.7,41.51,92.7,92.7ZM451.63,218.73c0-41.61-33.73-75.34-75.34-75.34s-75.34,33.73-75.34,75.34,33.73,75.34,75.34,75.34,75.34-33.73,75.34-75.34Z"/>
    </g>
  </g>
</svg>
