<svg width="48" height="48" viewBox="0 0 48 48" fill="none" xmlns="http://www.w3.org/2000/svg">
<path d="M37.3333 25.6666C37.3333 33.9999 31.5 38.1666 24.5666 40.5833C24.2036 40.7063 23.8092 40.7004 23.45 40.5666C16.5 38.1666 10.6666 33.9999 10.6666 25.6666V13.9999C10.6666 13.5579 10.8422 13.134 11.1548 12.8214C11.4673 12.5089 11.8913 12.3333 12.3333 12.3333C15.6666 12.3333 19.8333 10.3333 22.7333 7.79994C23.0864 7.49827 23.5355 7.33252 24 7.33252C24.4644 7.33252 24.9135 7.49827 25.2666 7.79994C28.1833 10.3499 32.3333 12.3333 35.6666 12.3333C36.1087 12.3333 36.5326 12.5089 36.8451 12.8214C37.1577 13.134 37.3333 13.5579 37.3333 13.9999V25.6666Z" stroke="#C9A84C" stroke-width="3.33333" stroke-linecap="round" stroke-linejoin="round"/>
<path d="M19 23.9998L22.3333 27.3332L29 20.6665" stroke="#C9A84C" stroke-width="3.33333" stroke-linecap="round" stroke-linejoin="round"/>
</svg>
