<svg width="56" height="56" viewBox="0 0 56 56" fill="none" xmlns="http://www.w3.org/2000/svg">
<path d="M0 16C0 7.16344 7.16344 0 16 0H40C48.8366 0 56 7.16344 56 16V40C56 48.8366 48.8366 56 40 56H16C7.16344 56 0 48.8366 0 40V16Z" fill="#231F18"/>
<path d="M26.832 33.8332L29.1654 36.1665C29.3952 36.3963 29.668 36.5786 29.9683 36.703C30.2685 36.8274 30.5904 36.8914 30.9154 36.8914C31.2404 36.8914 31.5622 36.8274 31.8625 36.703C32.1627 36.5786 32.4356 36.3963 32.6654 36.1665C32.8952 35.9367 33.0775 35.6639 33.2018 35.3636C33.3262 35.0633 33.3902 34.7415 33.3902 34.4165C33.3902 34.0915 33.3262 33.7697 33.2018 33.4694C33.0775 33.1691 32.8952 32.8963 32.6654 32.6665" stroke="white" stroke-width="2.33333" stroke-linecap="round" stroke-linejoin="round"/>
<path d="M30.3316 30.3334L33.2483 33.2501C33.7124 33.7142 34.3419 33.975 34.9983 33.975C35.6547 33.975 36.2842 33.7142 36.7483 33.2501C37.2124 32.786 37.4732 32.1565 37.4732 31.5001C37.4732 30.8437 37.2124 30.2142 36.7483 29.7501L32.2216 25.2234C31.5654 24.568 30.6758 24.1998 29.7483 24.1998C28.8208 24.1998 27.9312 24.568 27.275 25.2234L26.2483 26.2501C25.7842 26.7142 25.1547 26.975 24.4983 26.975C23.8419 26.975 23.2124 26.7142 22.7483 26.2501C22.2842 25.786 22.0234 25.1565 22.0234 24.5001C22.0234 23.8437 22.2842 23.2142 22.7483 22.7501L26.0266 19.4718C27.0909 18.4103 28.4789 17.7341 29.9707 17.5502C31.4626 17.3664 32.9732 17.6854 34.2633 18.4568L34.8116 18.7834C35.3084 19.0833 35.899 19.1872 36.4683 19.0751L38.4983 18.6668" stroke="white" stroke-width="2.33333" stroke-linecap="round" stroke-linejoin="round"/>
<path d="M38.4987 17.5L39.6654 30.3333H37.332" stroke="white" stroke-width="2.33333" stroke-linecap="round" stroke-linejoin="round"/>
<path d="M17.4987 17.5L16.332 30.3333L23.9154 37.9167C24.3795 38.3808 25.009 38.6415 25.6654 38.6415C26.3217 38.6415 26.9512 38.3808 27.4154 37.9167C27.8795 37.4525 28.1402 36.823 28.1402 36.1667C28.1402 35.5103 27.8795 34.8808 27.4154 34.4167" stroke="white" stroke-width="2.33333" stroke-linecap="round" stroke-linejoin="round"/>
<path d="M17.5 18.6665H26.8333" stroke="white" stroke-width="2.33333" stroke-linecap="round" stroke-linejoin="round"/>
</svg>
