<svg width="56" height="56" viewBox="0 0 56 56" fill="none" xmlns="http://www.w3.org/2000/svg">
<path d="M0 16C0 7.16344 7.16344 0 16 0H40C48.8366 0 56 7.16344 56 16V40C56 48.8366 48.8366 56 40 56H16C7.16344 56 0 48.8366 0 40V16Z" fill="#231F18"/>
<path d="M36.1667 26.8335H19.8333C18.5447 26.8335 17.5 27.8782 17.5 29.1669V37.3335C17.5 38.6222 18.5447 39.6669 19.8333 39.6669H36.1667C37.4553 39.6669 38.5 38.6222 38.5 37.3335V29.1669C38.5 27.8782 37.4553 26.8335 36.1667 26.8335Z" stroke="white" stroke-width="2.33333" stroke-linecap="round" stroke-linejoin="round"/>
<path d="M22.1667 26.8335V22.1668C22.1667 20.6197 22.7813 19.136 23.8752 18.042C24.9692 16.9481 26.4529 16.3335 28 16.3335C29.5471 16.3335 31.0308 16.9481 32.1248 18.042C33.2188 19.136 33.8333 20.6197 33.8333 22.1668V26.8335" stroke="white" stroke-width="2.33333" stroke-linecap="round" stroke-linejoin="round"/>
</svg>
