<svg width="56" height="56" viewBox="0 0 56 56" fill="none" xmlns="http://www.w3.org/2000/svg">
<path d="M0 16C0 7.16344 7.16344 0 16 0H40C48.8366 0 56 7.16344 56 16V40C56 48.8366 48.8366 56 40 56H16C7.16344 56 0 48.8366 0 40V16Z" fill="#231F18"/>
<path d="M18.4914 24.0566C18.3211 23.2896 18.3473 22.4919 18.5674 21.7377C18.7876 20.9834 19.1946 20.297 19.7508 19.742C20.307 19.1869 20.9943 18.7814 21.749 18.5628C22.5037 18.3442 23.3014 18.3197 24.0681 18.4916C24.4901 17.8316 25.0714 17.2885 25.7585 16.9123C26.4456 16.5361 27.2164 16.3389 27.9997 16.3389C28.7831 16.3389 29.5539 16.5361 30.241 16.9123C30.9281 17.2885 31.5094 17.8316 31.9314 18.4916C32.6993 18.319 33.4983 18.3433 34.2542 18.5625C35.0102 18.7816 35.6984 19.1883 36.2549 19.7448C36.8114 20.3013 37.2181 20.9895 37.4372 21.7455C37.6563 22.5014 37.6807 23.3004 37.5081 24.0683C38.1681 24.4903 38.7112 25.0716 39.0874 25.7587C39.4636 26.4458 39.6608 27.2166 39.6608 28C39.6608 28.7833 39.4636 29.5541 39.0874 30.2412C38.7112 30.9283 38.1681 31.5096 37.5081 31.9316C37.68 32.6983 37.6555 33.496 37.4369 34.2507C37.2183 35.0054 36.8127 35.6927 36.2577 36.2489C35.7027 36.8051 35.0163 37.2121 34.262 37.4323C33.5078 37.6524 32.7101 37.6786 31.9431 37.5083C31.5216 38.1708 30.9398 38.7163 30.2515 39.0942C29.5633 39.4721 28.7908 39.6702 28.0056 39.6702C27.2204 39.6702 26.4479 39.4721 25.7596 39.0942C25.0713 38.7163 24.4895 38.1708 24.0681 37.5083C23.3014 37.6802 22.5037 37.6557 21.749 37.4371C20.9943 37.2185 20.307 36.813 19.7508 36.2579C19.1946 35.7029 18.7876 35.0165 18.5674 34.2622C18.3473 33.508 18.3211 32.7103 18.4914 31.9433C17.8264 31.5224 17.2786 30.9402 16.899 30.2507C16.5194 29.5612 16.3203 28.787 16.3203 28C16.3203 27.2129 16.5194 26.4387 16.899 25.7492C17.2786 25.0597 17.8264 24.4775 18.4914 24.0566Z" stroke="white" stroke-width="2.33333" stroke-linecap="round" stroke-linejoin="round"/>
<path d="M24.5 28.0003L26.8333 30.3337L31.5 25.667" stroke="white" stroke-width="2.33333" stroke-linecap="round" stroke-linejoin="round"/>
</svg>
