<svg width="56" height="56" viewBox="0 0 56 56" fill="none" xmlns="http://www.w3.org/2000/svg">
<path d="M0 16C0 7.16344 7.16344 0 16 0H40C48.8366 0 56 7.16344 56 16V40C56 48.8366 48.8366 56 40 56H16C7.16344 56 0 48.8366 0 40V16Z" fill="#231F18"/>
<path d="M18.6667 30.3331C18.4459 30.3339 18.2294 30.272 18.0424 30.1546C17.8555 30.0372 17.7056 29.8692 17.6103 29.6701C17.515 29.4709 17.4782 29.2488 17.5041 29.0296C17.53 28.8103 17.6176 28.6029 17.7567 28.4315L29.3067 16.5315C29.3933 16.4314 29.5114 16.3639 29.6415 16.3398C29.7716 16.3157 29.906 16.3366 30.0227 16.399C30.1394 16.4614 30.2313 16.5617 30.2836 16.6832C30.3358 16.8048 30.3451 16.9405 30.31 17.0681L28.07 24.0915C28.0039 24.2682 27.9818 24.4584 28.0054 24.6456C28.0289 24.8329 28.0976 25.0116 28.2054 25.1665C28.3133 25.3213 28.4571 25.4477 28.6245 25.5348C28.7919 25.6219 28.978 25.6671 29.1667 25.6665H37.3333C37.5541 25.6657 37.7706 25.7276 37.9576 25.845C38.1445 25.9624 38.2944 26.1304 38.3897 26.3295C38.485 26.5287 38.5218 26.7508 38.4959 26.97C38.47 27.1893 38.3824 27.3967 38.2433 27.5681L26.6933 39.4681C26.6067 39.5681 26.4886 39.6357 26.3585 39.6598C26.2284 39.6838 26.094 39.663 25.9773 39.6005C25.8606 39.5381 25.7687 39.4379 25.7164 39.3163C25.6642 39.1948 25.6549 39.059 25.69 38.9315L27.93 31.9081C27.9961 31.7314 28.0182 31.5412 27.9946 31.354C27.9711 31.1667 27.9024 30.988 27.7946 30.8331C27.6867 30.6783 27.5429 30.5519 27.3755 30.4648C27.2081 30.3777 27.022 30.3325 26.8333 30.3331H18.6667Z" stroke="white" stroke-width="2.33333" stroke-linecap="round" stroke-linejoin="round"/>
</svg>
