<svg width="56" height="56" viewBox="0 0 56 56" fill="none" xmlns="http://www.w3.org/2000/svg">
<path d="M0 16C0 7.16344 7.16344 0 16 0H40C48.8366 0 56 7.16344 56 16V40C56 48.8366 48.8366 56 40 56H16C7.16344 56 0 48.8366 0 40V16Z" fill="#231F18"/>
<path d="M37.3333 29.1667C37.3333 35 33.25 37.9167 28.3967 39.6083C28.1425 39.6945 27.8665 39.6903 27.615 39.5967C22.75 37.9167 18.6667 35 18.6667 29.1667V21C18.6667 20.6905 18.7896 20.3938 19.0084 20.175C19.2272 19.9562 19.5239 19.8333 19.8333 19.8333C22.1667 19.8333 25.0833 18.4333 27.1133 16.66C27.3605 16.4488 27.6749 16.3328 28 16.3328C28.3251 16.3328 28.6395 16.4488 28.8867 16.66C30.9283 18.445 33.8333 19.8333 36.1667 19.8333C36.4761 19.8333 36.7728 19.9562 36.9916 20.175C37.2104 20.3938 37.3333 20.6905 37.3333 21V29.1667Z" stroke="white" stroke-width="2.33333" stroke-linecap="round" stroke-linejoin="round"/>
</svg>
