<?xml version="1.0" encoding="UTF-8"?>
<svg id="Layer_2" data-name="Layer 2" xmlns="http://www.w3.org/2000/svg" xmlns:xlink="http://www.w3.org/1999/xlink" viewBox="0 0 239.67 131.39">
  <defs>
    <style>
      .cls-1 {
        fill: url(#linear-gradient);
      }
    </style>
    <linearGradient id="linear-gradient" x1="0" y1="65.69" x2="239.67" y2="65.69" gradientUnits="userSpaceOnUse">
      <stop offset="0" stop-color="#d5ab60"/>
      <stop offset=".41" stop-color="#d6ad62"/>
      <stop offset=".61" stop-color="#dbb469"/>
      <stop offset=".75" stop-color="#e3c175"/>
      <stop offset=".88" stop-color="#eed386"/>
      <stop offset=".99" stop-color="#fdeb9c"/>
      <stop offset="1" stop-color="#ffee9f"/>
    </linearGradient>
  </defs>
  <g id="Layer_1-2" data-name="Layer 1">
    <path class="cls-1" d="M31.09,100.45l.04,30.59h-3.99l-.04-22.72-10.52,14.01h-1.91l-10.52-13.9v22.62H.16v-30.59h3.41l12.13,16.84,11.98-16.84h3.41ZM62.25,117.67c0,3.41-.79,5.9-2.37,7.47-1.58,1.57-3.83,2.36-6.75,2.36s-5.12-.79-6.71-2.36c-1.58-1.57-2.37-4.06-2.37-7.47v-17.22h-4.61v17.39c0,4.43,1.21,7.79,3.64,10.1,2.43,2.3,5.76,3.45,10,3.45s7.61-1.15,10.03-3.45c2.41-2.3,3.62-5.67,3.62-10.1v-17.39h-4.47v17.22ZM94.44,85.41h24.86V0h-27.44l-31.9,56.82L27.29,0H0v85.41h24.86v-47.85l26.19,47.85h16.9l26.23-48.64.26,48.64ZM94.97,118.8l7.75,12.23h-5.02l-7.13-11.38c-.6.04-1.22.07-1.86.07h-7.97v11.31h-4.61v-30.59h12.58c2.83,0,5.24.42,7.24,1.27,2,.85,3.53,2.07,4.61,3.67,1.08,1.6,1.44,2.75,1.44,4.72,0,1.74-.37,3.12-1.44,4.7-1.08,1.59-2.61,2.8-4.61,3.65-.31.13-.64.23-.97.34ZM95.28,114.2c1.52-1.21,2.12-2.39,2.12-4.09s-.6-2.87-2.12-4.07c-1.52-1.19-3.76-1.79-6.71-1.79h-7.84v11.77h7.84c2.95,0,5.19-.6,6.71-1.81ZM125.84,100.45l14.66,30.59h-4.84l-3.54-7.65h-17.15l-3.54,7.65h-4.75l14.61-30.59h4.56ZM130.49,119.89l-6.96-15.01-6.96,15.01h13.91ZM172.39,118.39c.83,1.18,1.24,2.64,1.24,4.39,0,2.62-1.04,4.65-3.11,6.1s-5.16,2.16-9.24,2.16h-15.4v-30.59h14.47c3.72,0,6.58.71,8.57,2.12,2,1.41,3,3.34,3,5.79,0,1.66-.39,3.06-1.18,4.2-.78,1.14-1.84,2.01-3.16,2.62-.02.01-.05.02-.07.03.52.14,1.02.29,1.5.5,1.41.61,2.54,1.51,3.36,2.69ZM150.5,103.99v9.79h9.45c2.33,0,4.15-.41,5.44-1.22,1.29-.82,1.94-2.04,1.94-3.67s-.65-2.86-1.94-3.67-3.1-1.22-5.44-1.22h-9.45ZM168.98,122.43c0-1.78-.68-3.07-2.03-3.89-1.35-.82-3.3-1.22-5.85-1.22h-10.6v10.18h10.6c2.55,0,4.5-.41,5.85-1.22,1.35-.82,2.03-2.1,2.03-3.85ZM200.71,42.57L237.1,0h-28.5l-22.01,27.07L164.3,0h-29.71l36.95,42.8-38.92,42.61h31.01l22.18-28.18,22.54,28.18h31.31l-38.96-42.84ZM238.05,100.45h-5.02l-8.95,11.73-9.02-11.73h-5.25l11.38,14.91-12.12,15.68h5.3l9.55-12.61,9.67,12.61h5.3l-12.2-15.82,11.37-14.77ZM185.39,117.36h16.18v-3.71h-16.18v-9.4h18.16v-3.8h-22.77v30.59h23.42v-3.8h-18.81v-9.88Z"/>
  </g>
</svg>